<?xml version="1.0" encoding="UTF-8"?>
<svg width="343px" height="127px" viewBox="0 0 343 127" version="1.1" xmlns="http://www.w3.org/2000/svg" xmlns:xlink="http://www.w3.org/1999/xlink">
    <g id="Page-1" stroke="none" stroke-width="1" fill="none" fill-rule="evenodd">
        <g id="wagtail-seeklogo-2" fill-rule="nonzero">
            <g id="Group">
                <path d="M84.5,2.7 L84.5,8.4 C84.5,8.4 74.3,4.6 67.7,11.5 C62.9,16.5 62.5,22.1 64.7,29.6 C86.3,29.6 89.7,41.7 89.7,41.7 L87.5,27.8 L94.3,19.5 L94.3,19.5 C94.3,9.7 86.2,3.2 84.5,2.7 Z" id="Path" fill="#FFFFFF"></path>
                <circle id="Oval" fill="#027D7E" cx="86.4" cy="16.7" r="2.6"></circle>
                <path d="M89.7,41.7 C89.7,41.7 86.4,25.1 64.8,29.6 C62.6,22.1 63,16.6 67.8,11.5 C74.3,4.6 84.5,8.4 84.5,8.4 L84.5,2.7 C80.9,1.1 77.5,0.8 73.7,0.8 C59.8,0.8 52.1,11.2 48.8,18.2 L9.7,90.1 L20.7,88 L0.5,127 L14.6,124.5 L25.4,93.8 C56,93.8 95.2,82.8 89.7,41.7 Z" id="Path" fill="#027D7E"></path>
                <polygon id="Path" fill="#027D7E" points="102.9 27.8 94.3 19.5 87.5 27.8"></polygon>
                <path d="M30.5,84.9 C30.5,84.9 31.5,84.7 33.3,84.3 C35.1,83.9 37.6,83.3 40.6,82.5 C42.1,82.1 43.7,81.6 45.4,81 C47.1,80.4 48.9,79.8 50.6,79 C52.4,78.3 54.2,77.4 56,76.4 C57.8,75.4 59.5,74.3 61.1,73 C61.5,72.7 61.9,72.4 62.3,72 L63.5,71 C64.2,70.3 65,69.6 65.7,68.8 C66.4,68.1 67,67.3 67.6,66.5 C67.9,66.1 68.2,65.7 68.5,65.3 L68.9,64.7 L69.3,64.1 C69.5,63.7 69.8,63.3 70,62.9 C70.2,62.5 70.4,62.1 70.7,61.7 C70.8,61.5 70.9,61.3 71,61.1 C71.1,60.9 71.2,60.7 71.3,60.5 C71.5,60.1 71.7,59.7 71.8,59.3 C72.1,58.5 72.4,57.7 72.7,56.9 C72.9,56.1 73.2,55.3 73.4,54.6 C73.6,53.9 73.7,53.1 73.9,52.5 C74,51.8 74.1,51.2 74.2,50.5 C74.3,49.9 74.4,49.3 74.4,48.8 C74.5,48.3 74.5,47.8 74.6,47.3 C74.7,45.5 74.7,44.5 74.7,44.5 L76.3,44.6 C76.3,44.6 76.2,45.7 76.1,47.5 C76,48 76,48.5 75.9,49 C75.8,49.6 75.8,50.2 75.6,50.8 C75.5,51.4 75.3,52.1 75.2,52.8 C75,53.5 74.8,54.2 74.6,55 C74.4,55.8 74.1,56.5 73.8,57.4 C73.5,58.2 73.2,59 72.8,59.9 C72.6,60.3 72.4,60.7 72.2,61.1 C72.1,61.3 72,61.5 71.9,61.7 C71.8,61.9 71.7,62.1 71.6,62.3 C71.4,62.7 71.1,63.1 70.9,63.6 C70.6,64 70.4,64.4 70.1,64.8 C70,65 69.8,65.2 69.7,65.4 L69.3,66 C69,66.4 68.7,66.8 68.4,67.2 C67.7,68 67.1,68.8 66.3,69.5 C65.6,70.3 64.8,70.9 64,71.7 L62.8,72.7 C62.4,73 62,73.3 61.5,73.6 C59.8,74.8 58,75.9 56.2,76.9 C54.4,77.8 52.5,78.7 50.7,79.4 C48.9,80.1 47.1,80.7 45.4,81.2 C43.7,81.7 42.1,82.2 40.5,82.5 C37.5,83.2 34.9,83.8 33.1,84.1 C31.5,84.7 30.5,84.9 30.5,84.9 Z" id="Path" fill="#FFFFFF"></path>
            </g>
            <g id="Group" transform="translate(106.000000, 32.000000)" fill="#F2F2F2">
                <polygon id="Path" points="21.5 52.7 12.7 52.7 0.1 16.3 8 16.3 17 43.8 26 16.3 33.9 16.3 42.9 43.8 51.9 16.3 59.8 16.3 47.5 52.7 38.7 52.7 30.1 27.8"></polygon>
                <path d="M94.6,52.7 L87.6,52.7 L87.6,47.8 C84.6,51.4 80.6,53.2 75.5,53.2 C71.7,53.2 68.6,52.1 66.1,50 C63.6,47.9 62.4,45 62.4,41.4 C62.4,37.8 63.7,35.1 66.4,33.4 C69,31.6 72.6,30.7 77.1,30.7 L87,30.7 L87,29.3 C87,24.5 84.3,22 78.9,22 C75.5,22 72,23.2 68.4,25.7 L65,20.9 C69.4,17.4 74.4,15.6 80.1,15.6 C84.4,15.6 87.9,16.7 90.6,18.8 C93.3,21 94.7,24.4 94.7,29 L94.7,52.7 L94.6,52.7 L94.6,52.7 Z M86.9,39.1 L86.9,36 L78.3,36 C72.8,36 70,37.7 70,41.2 C70,43 70.7,44.3 72.1,45.3 C73.5,46.2 75.4,46.7 77.8,46.7 C80.2,46.7 82.4,46 84.2,44.6 C86,43.3 86.9,41.5 86.9,39.1 Z" id="Shape"></path>
                <path d="M136.2,16.3 L136.2,48 C136.2,54.4 134.5,59.3 131,62.5 C127.5,65.7 123,67.3 117.6,67.3 C112.1,67.3 107.2,65.6 102.8,62.2 L106.4,56.4 C110,59.1 113.5,60.4 117.2,60.4 C120.8,60.4 123.7,59.5 125.8,57.6 C127.9,55.7 129,52.7 129,48.6 L129,43.9 C127.9,46 126.2,47.8 124.1,49 C122,50.3 119.6,50.9 117,50.9 C112.2,50.9 108.2,49.2 105.1,45.8 C102,42.4 100.4,38.2 100.4,33.2 C100.4,28.2 102,24 105.1,20.6 C108.2,17.2 112.2,15.5 117,15.5 C121.8,15.5 125.7,17.5 128.7,21.5 L128.7,16.1 L136.2,16.1 L136.2,16.3 L136.2,16.3 Z M107.8,33.1 C107.8,36.1 108.7,38.7 110.6,40.8 C112.4,43 114.9,44 118.1,44 C121.2,44 123.8,43 125.7,40.9 C127.6,38.8 128.6,36.2 128.6,33.1 C128.6,30 127.6,27.3 125.7,25.2 C123.7,23 121.2,22 118.1,22 C115,22 112.5,23.1 110.7,25.4 C108.7,27.5 107.8,30.1 107.8,33.1 Z" id="Shape"></path>
                <path d="M155.4,22.4 L155.4,40.9 C155.4,42.6 155.9,44 156.8,45 C157.7,46 159,46.5 160.6,46.5 C162.2,46.5 163.8,45.7 165.3,44.1 L168.4,49.5 C165.7,51.9 162.7,53.1 159.5,53.1 C156.2,53.1 153.5,52 151.2,49.7 C148.9,47.4 147.7,44.4 147.7,40.6 L147.7,22.4 L143.1,22.4 L143.1,16.2 L147.7,16.2 L147.7,4.9 L155.4,4.9 L155.4,16.3 L165,16.3 L165,22.5 L155.4,22.5 L155.4,22.4 Z" id="Path"></path>
                <path d="M204,52.7 L197,52.7 L197,47.8 C194,51.4 190,53.2 184.9,53.2 C181.1,53.2 178,52.1 175.5,50 C173,47.9 171.8,45 171.8,41.4 C171.8,37.8 173.1,35.1 175.8,33.4 C178.4,31.6 182,30.7 186.5,30.7 L196.4,30.7 L196.4,29.3 C196.4,24.5 193.7,22 188.3,22 C184.9,22 181.4,23.2 177.8,25.7 L174.4,20.9 C178.8,17.4 183.8,15.6 189.5,15.6 C193.8,15.6 197.3,16.7 200,18.8 C202.7,21 204.1,24.4 204.1,29 L204.1,52.7 L204,52.7 L204,52.7 Z M196.3,39.1 L196.3,36 L187.7,36 C182.2,36 179.4,37.7 179.4,41.2 C179.4,43 180.1,44.3 181.5,45.3 C182.9,46.2 184.8,46.7 187.2,46.7 C189.6,46.7 191.8,46 193.6,44.6 C195.4,43.3 196.3,41.5 196.3,39.1 Z" id="Shape"></path>
                <path d="M213.8,9 C212.8,8 212.4,6.9 212.4,5.6 C212.4,4.3 212.9,3.1 213.8,2.2 C214.8,1.2 215.9,0.8 217.2,0.8 C218.5,0.8 219.7,1.3 220.6,2.2 C221.6,3.2 222,4.3 222,5.6 C222,6.9 221.5,8.1 220.6,9 C219.7,9.9 218.5,10.4 217.2,10.4 C215.9,10.5 214.8,10 213.8,9 Z M221,52.7 L213.3,52.7 L213.3,16.3 L221,16.3 L221,52.7 Z" id="Shape"></path>
                <polygon id="Path" points="237 52.7 229.3 52.7 229.3 1.9 237 1.9"></polygon>
            </g>
        </g>
    </g>
</svg>