<?xml version="1.0" encoding="UTF-8"?>
<svg version="1.1" viewBox="0 0 84 90" xmlns="http://www.w3.org/2000/svg">
<title>noun-phone-52971</title>
<desc>Created with Sketch.</desc>
<g fill="none" fill-rule="evenodd">
<g fill="#000" fill-rule="nonzero">
<path d="m82.1 70.1-0.5-1c-1.4-3.3-18.6-8.3-20-8.4l-1.1 0.1c-2.1 0.4-4.4 2.3-8.9 6.2-0.9 0.8-2.1 1-3.2 0.4-5.9-3.3-13.1-9.9-16.7-13.9-3.9-4.3-8.6-11.4-10.8-17.1-0.4-1.1 0-2.3 0.8-3.1 5.1-4.6 7.3-6.8 7.5-9.2 0.1-1.4-2.9-19.1-6-20.8l-0.9-0.6c-2-1.3-5-3.2-8.3-2.5-0.8 0.2-1.6 0.5-2.3 0.9-2.2 1.4-7.7 5.2-10.2 10.1-1.5 3.1-2.2 31.2 18.8 54.9 20.8 23.5 46.5 24.5 50.3 23.7h0.1l0.3-0.1c5.2-1.9 9.6-6.8 11.3-8.9 3.1-3.7 1-8.2-0.2-10.7z"/>
</g>
</g>
</svg>
